<?xml version="1.0" encoding="iso-8859-1"?>
<!-- Generator: Adobe Illustrator 19.0.0, SVG Export Plug-In . SVG Version: 6.00 Build 0)  -->
<svg version="1.1" id="Capa_1" xmlns="http://www.w3.org/2000/svg" xmlns:xlink="http://www.w3.org/1999/xlink" x="0px" y="0px"
	 viewBox="0 0 539.077 539.077" style="enable-background:new 0 0 539.077 539.077;" xml:space="preserve">
<g>
	<g>
		<path d="M426.769,359.385H112.308C50.385,359.385,0,309,0,247.077c0-6.208,5.023-11.231,11.231-11.231s11.231,5.023,11.231,11.231
			c0,49.551,40.306,89.846,89.846,89.846h314.462c49.551,0,89.846-40.295,89.846-89.846c0-6.208,5.023-11.231,11.231-11.231
			c6.208,0,11.231,5.023,11.231,11.231C539.077,309,488.692,359.385,426.769,359.385z M438,292H101.077
			c-6.208,0-11.231-5.023-11.231-11.231s5.023-11.231,11.231-11.231H438c6.208,0,11.231,5.023,11.231,11.231S444.208,292,438,292z"
			/>
		<path d="M449.231,347.101h-22.462V179.692c0-86.698-70.543-157.231-157.231-157.231c-86.698,0-157.231,70.532-157.231,157.231
			v167.409H89.846V179.692C89.846,80.611,170.458,0,269.538,0s179.692,80.611,179.692,179.692V347.101z"/>
		<path d="M303.231,494.154h-67.385l-22.462,44.923h112.308L303.231,494.154z"/>
	</g>
</g>
<g>
</g>
<g>
</g>
<g>
</g>
<g>
</g>
<g>
</g>
<g>
</g>
<g>
</g>
<g>
</g>
<g>
</g>
<g>
</g>
<g>
</g>
<g>
</g>
<g>
</g>
<g>
</g>
<g>
</g>
</svg>
