<?xml version="1.0" encoding="iso-8859-1"?>
<!-- Generator: Adobe Illustrator 19.0.0, SVG Export Plug-In . SVG Version: 6.00 Build 0)  -->
<svg version="1.1" id="Capa_1" xmlns="http://www.w3.org/2000/svg" xmlns:xlink="http://www.w3.org/1999/xlink" x="0px" y="0px"
	 viewBox="0 0 522.462 522.462" style="enable-background:new 0 0 522.462 522.462;" xml:space="preserve">
<g>
	<g>
		<path d="M511.577,228.577c-6.008,0-10.885,4.876-10.885,10.885c0,40.491-27.821,74.516-65.308,84.225V283H87.077v40.687
			c-37.508-9.709-65.308-43.734-65.308-84.225c0-6.008-4.876-10.885-10.885-10.885S0,233.453,0,239.462
			c0,60.018,48.828,108.846,108.846,108.846h304.769c60.018,0,108.846-48.828,108.846-108.846
			C522.462,233.453,517.585,228.577,511.577,228.577z M435.385,174.154C435.385,78.13,357.255,0,261.231,0
			S87.077,78.13,87.077,174.154v87.077h348.308V174.154z M228.577,478.923l-21.769,43.538h108.846l-21.769-43.538H228.577z"/>
	</g>
</g>
<g>
</g>
<g>
</g>
<g>
</g>
<g>
</g>
<g>
</g>
<g>
</g>
<g>
</g>
<g>
</g>
<g>
</g>
<g>
</g>
<g>
</g>
<g>
</g>
<g>
</g>
<g>
</g>
<g>
</g>
</svg>
