<?xml version="1.0" encoding="utf-8"?>
<!-- Generator: Adobe Illustrator 16.0.0, SVG Export Plug-In . SVG Version: 6.00 Build 0)  -->
<!DOCTYPE svg PUBLIC "-//W3C//DTD SVG 1.1//EN" "http://www.w3.org/Graphics/SVG/1.1/DTD/svg11.dtd">
<svg version="1.1" id="Layer_1" xmlns="http://www.w3.org/2000/svg" xmlns:xlink="http://www.w3.org/1999/xlink" x="0px" y="0px"
	 width="512px" height="512px" viewBox="0 0 512 512" enable-background="new 0 0 512 512" xml:space="preserve">
<g>
	<path d="M452.414,88.971H179.675c-13.43,0-24.324,10.877-24.324,24.306c0,13.43,10.895,24.324,24.324,24.324h90.721l1.15,148.223
		c0.08,8.882,7.306,16.076,16.205,16.076h37.815v53.701c0,8.967,7.273,16.205,16.223,16.205h62.156
		c8.944,0,16.205-7.238,16.205-16.205c0-8.963-7.261-16.201-16.205-16.201h-45.938v-53.705c0-8.961-7.273-16.218-16.218-16.218
		h-37.944l-1.021-131.876h65.998v77.837c0,8.962,7.243,16.219,16.205,16.219H454.6v214.46c0,1.195-0.99,2.186-2.186,2.186h-29.572
		c-13.43,0-24.323,10.895-24.323,24.305c0,13.432,10.894,24.324,24.323,24.324h29.572c28.023,0,50.814-22.791,50.814-50.814V139.785
		C503.229,111.762,480.438,88.971,452.414,88.971z M401.231,199.233v-61.633h51.183c1.195,0,2.186,0.972,2.186,2.185v59.448H401.231
		z"/>
	<path d="M325.584,448.302H141.762V309.156h43.322v87.009c0,8.961,7.256,16.2,16.2,16.2h79.721c8.931,0,16.201-7.239,16.201-16.2
		c0-8.967-7.271-16.206-16.201-16.206H217.49v-87.021c0-8.966-7.239-16.204-16.206-16.204H57.418v-55.891h110.088
		c8.962,0,16.219-7.257,16.219-16.219c0-8.949-7.257-16.206-16.219-16.206H57.418v-48.633c0-1.213,0.977-2.185,2.172-2.185h16.045
		c13.431,0,24.323-10.895,24.323-24.324c0-13.429-10.893-24.306-24.323-24.306H59.59c-28.01,0-50.818,22.791-50.818,50.814v306.331
		c0,28.023,22.809,50.814,50.818,50.814h265.994c13.442,0,24.323-10.893,24.323-24.324
		C349.907,459.196,339.026,448.302,325.584,448.302z M57.418,446.116v-136.96h51.902v139.146H59.59
		C58.395,448.302,57.418,447.312,57.418,446.116z"/>
	<path d="M83.927,75.604h95.988c2.806,0,5.311-1.688,6.376-4.259c1.054-2.566,0.48-5.547-1.496-7.51l-45.871-45.871
		c-3.859-3.859-10.112-3.859-13.972,0L79.046,63.835c-1.977,1.963-2.55,4.93-1.496,7.51C78.633,73.916,81.138,75.604,83.927,75.604z
		"/>
</g>
</svg>
